<mxfile host="app.diagrams.net" modified="2023-04-29T10:46:14.380Z" agent="Mozilla/5.0 (Macintosh; Intel Mac OS X 10_15_7) AppleWebKit/537.36 (KHTML, like Gecko) Chrome/108.0.0.0 Whale/3.18.154.8 Safari/537.36" version="21.1.6" etag="ZrB0T1FhNAg0VkIpQmZ_" type="github">
  <diagram name="페이지-1" id="fyvclGtvah1sjLLH0Wwi">
    <mxGraphModel>
      <root>
        <mxCell id="0" />
        <mxCell id="1" parent="0" />
      </root>
    </mxGraphModel>
  </diagram>
</mxfile>
